<svg width="1276" height="192" viewBox="0 0 1276 188" fill="none" xmlns="http://www.w3.org/2000/svg">
<mask id="mask0_536_202" style="mask-type:alpha" maskUnits="userSpaceOnUse" x="-2" y="0" width="1280" height="192">
<rect x="-2" width="1280" height="192" fill="#C4C4C4"/>
</mask>
<g mask="url(#mask0_536_202)">
<path fill-rule="evenodd" clip-rule="evenodd" d="M1278 155.427L1224.67 126.14C1171.33 96.8537 1064.67 38.2806 958 18.7562C851.333 -0.768129 744.667 18.7562 638 52.9239C531.333 87.0916 424.667 135.902 318 140.784C211.333 145.665 104.667 106.616 51.3333 87.0916L-2.00012 67.5672V214H51.3333C104.667 214 211.333 214 318 214C424.667 214 531.333 214 638 214C744.667 214 851.333 214 958 214C1064.67 214 1171.33 214 1224.67 214H1278V155.427Z" fill="#6AC594"/>
<path fill-rule="evenodd" clip-rule="evenodd" d="M1278 156.016L1224.67 166.598C1171.33 177.18 1064.67 198.344 958 182.471C851.333 166.598 744.667 113.688 638 71.3599C531.333 29.0319 424.667 -2.71408 318 2.57692C211.333 7.86792 104.667 50.1959 51.3333 71.3599L-2.00012 92.5239V283H51.3333C104.667 283 211.333 283 318 283C424.667 283 531.333 283 638 283C744.667 283 851.333 283 958 283C1064.67 283 1171.33 283 1224.67 283H1278V156.016Z" fill="white"/>
</g>
</svg>
